<?xml version="1.0" encoding="UTF-8" standalone="no"?>
<!-- Created with Inkscape (http://www.inkscape.org/) -->

<svg
   width="143.08687mm"
   height="23.566315mm"
   viewBox="0 0 143.08687 23.566315"
   version="1.1"
   id="svg311"
   inkscape:version="1.2.2 (b0a8486541, 2022-12-01)"
   sodipodi:docname="haag.cc.svg"
   xmlns:inkscape="http://www.inkscape.org/namespaces/inkscape"
   xmlns:sodipodi="http://sodipodi.sourceforge.net/DTD/sodipodi-0.dtd"
   xmlns="http://www.w3.org/2000/svg"
   xmlns:svg="http://www.w3.org/2000/svg">
  <sodipodi:namedview
     id="namedview313"
     pagecolor="#ffffff"
     bordercolor="#000000"
     borderopacity="0.25"
     inkscape:showpageshadow="2"
     inkscape:pageopacity="0.0"
     inkscape:pagecheckerboard="0"
     inkscape:deskcolor="#d1d1d1"
     inkscape:document-units="mm"
     showgrid="false"
     inkscape:zoom="1.28"
     inkscape:cx="230.85938"
     inkscape:cy="58.984375"
     inkscape:window-width="1720"
     inkscape:window-height="1392"
     inkscape:window-x="1720"
     inkscape:window-y="24"
     inkscape:window-maximized="0"
     inkscape:current-layer="layer1" />
  <defs
     id="defs308" />
  <g
     inkscape:label="Layer 1"
     inkscape:groupmode="layer"
     id="layer1"
     transform="translate(-69.454357,-110.29363)">
    <path
       id="path306"
       style="fill:#0995bd;stroke:none;stroke-width:0.0846667"
       d="m 102.89004,110.29471 c -2.990436,0.0452 -5.958088,1.50984 -7.783502,3.92224 -2.970107,3.92402 -3.289353,9.81113 -0.981335,14.13919 2.710177,5.08237 9.322197,7.23159 14.191377,3.81166 0.92202,-0.64787 1.84716,-1.53247 2.3704,-2.54145 h 0.0847 v 2.3704 l 0.13023,0.92346 1.13946,0.17725 h 3.04839 v -22.09788 h -4.31808 v 3.6406 c -1.07357,-1.42956 -2.25993,-2.69335 -3.89485,-3.48299 -1.26365,-0.61023 -2.62755,-0.88303 -3.98684,-0.86248 z m 25.80463,0.009 c -1.20749,0.008 -2.4209,0.23625 -3.5295,0.66352 -7.46505,2.87753 -8.84084,13.81111 -3.86075,19.50527 2.60434,2.97688 7.16628,4.26436 10.88823,2.74815 1.78053,-0.72551 3.22536,-2.02988 4.31756,-3.59461 l 0.0847,3.47111 h 4.23334 v -22.09788 h -3.04788 l -1.12448,0.17725 -0.0641,1.00821 -0.0816,2.45514 c -1.42917,-1.96996 -3.24343,-3.55534 -5.67252,-4.10827 -0.69628,-0.15848 -1.41853,-0.23275 -2.14302,-0.22789 z m 56.83787,0.0181 c -4.51611,0.004 -8.83833,2.63779 -10.72131,6.77375 -0.7747,1.70197 -1.04833,3.47916 -1.04748,5.33404 0.003,6.67164 6.10109,11.98004 12.7,11.3745 1.28947,-0.11836 2.49939,-0.29694 3.72536,-0.73949 0.43096,-0.15545 1.05425,-0.32379 1.3472,-0.70022 0.30226,-0.38955 0.17673,-1.0911 0.17673,-1.55287 v -3.81011 c -0.56895,0.34078 -0.99899,0.85116 -1.52393,1.25316 -1.00076,0.76615 -2.21348,1.34492 -3.47163,1.5074 -1.16586,0.15054 -2.34758,0.0791 -3.4711,-0.27957 -0.89324,-0.28499 -1.72734,-0.71937 -2.45463,-1.31517 -4.51527,-3.69967 -3.22836,-11.46167 2.28513,-13.46067 0.89408,-0.32423 1.84672,-0.44754 2.79414,-0.39481 1.44865,0.0806 2.88105,0.5912 4.06384,1.42782 0.624,0.44144 1.12711,1.04253 1.77818,1.44022 v -3.80959 c 0,-0.45303 0.12716,-1.15526 -0.13022,-1.55391 -0.2811,-0.43506 -1.01703,-0.62231 -1.47846,-0.78496 -1.4859,-0.52433 -3.0038,-0.7108 -4.57182,-0.70952 z m 20.74292,5.2e-4 c -7.123,0.0128 -12.40826,6.33902 -11.65303,13.29221 0.67649,6.2323 6.51509,10.68778 12.66951,10.18232 1.30895,-0.10751 2.57515,-0.29358 3.80959,-0.77152 0.39454,-0.15265 0.98119,-0.32669 1.24281,-0.6811 0.25908,-0.34993 0.11214,-1.03683 0.11214,-1.44797 0,-1.29184 0.0728,-2.60607 0,-3.89486 -1.47998,1.16298 -2.67157,2.27599 -4.57233,2.69441 -1.03124,0.22708 -2.10224,0.1809 -3.13262,-0.0284 -0.99822,-0.20277 -1.96813,-0.61549 -2.79363,-1.21646 -5.16128,-3.75666 -3.56476,-12.71822 2.87837,-14.00948 0.86698,-0.17372 1.75259,-0.18496 2.62465,-0.0398 1.22513,0.20393 2.38272,0.67847 3.38687,1.40921 0.58843,0.42821 1.0686,0.99492 1.69344,1.36891 -0.23537,-1.24879 -0.0848,-2.6263 -0.0848,-3.89433 0,-0.45105 0.14235,-1.17699 -0.1633,-1.55133 -0.31327,-0.38446 -0.99412,-0.56352 -1.44539,-0.72554 -1.48081,-0.53186 -3.00938,-0.68907 -4.57233,-0.68626 z m -50.96123,0.16226 c -0.82427,0.003 -1.65083,0.0866 -2.46341,0.24702 -5.83015,1.15039 -9.59363,6.70952 -9.02891,12.54445 0.2811,2.90906 1.55966,5.72841 3.77962,7.67033 3.76089,3.28989 10.20143,3.72992 14.22393,0.63511 3.18093,-2.44729 4.14859,-6.42712 4.14859,-10.25261 h -10.24434 v 3.55586 h 4.99505 c -0.29633,3.6636 -4.28723,5.83184 -7.61969,4.55838 -2.19118,-0.83744 -3.62715,-2.85698 -4.21473,-5.06636 -0.79671,-2.99119 0.0718,-6.54094 2.43654,-8.60671 2.94216,-2.56975 7.66602,-1.54444 9.31364,2.00246 l 4.14859,-1.94717 c -0.36745,-1.25236 -1.52305,-2.38236 -2.5399,-3.14193 -2.00787,-1.50038 -4.46217,-2.20884 -6.93498,-2.19883 z m -85.859873,0.5147 v 16.25586 4.1491 l 0.130225,1.51567 1.139465,0.17725 h 3.048393 c 0.138,-2.3799 0,-4.81107 0,-7.19646 0,-0.59986 -0.265761,-2.07656 0.185518,-2.53215 0.20574,-0.20743 0.563741,-0.17487 0.830441,-0.17673 0.677329,-0.005 1.354578,-5.2e-4 2.031917,-5.2e-4 h 8.212418 v 7.28121 l 10e-4,1.77767 0.176217,0.71623 1.177706,0.13075 h 2.963126 V 110.99929 H 85.0327 v 6.26525 c 0,0.51734 0.238338,1.85846 -0.154512,2.24793 -0.18373,0.18161 -0.545224,0.12392 -0.777214,0.1235 l -2.11615,-5.1e-4 h -5.079793 c -0.999059,0 -2.059817,-0.073 -3.047876,0.0847 l -0.08475,-3.21737 v -5.50354 z m 34.293513,3.11609 c 0.77006,-0.0131 1.54786,0.0812 2.28255,0.28784 5.54228,1.55884 6.46568,9.6397 2.93677,13.52734 -1.13454,1.24943 -2.72548,1.90243 -4.37648,2.07946 -0.7874,0.0843 -1.60077,0.0209 -2.37039,-0.16537 -7.387162,-1.78808 -7.006451,-14.82039 0.76171,-15.6807 0.25315,-0.028 0.50916,-0.0442 0.76584,-0.0486 z m 25.739,0 c 0.77005,-0.0131 1.54733,0.0812 2.28203,0.28784 5.55158,1.56144 6.49576,9.6304 2.94401,13.52837 -1.14978,1.26187 -2.71103,1.89911 -4.3832,2.07843 -0.7874,0.0843 -1.60129,0.0209 -2.37091,-0.16537 -7.37108,-1.78402 -6.98223,-14.82308 0.76222,-15.6807 0.25316,-0.028 0.50916,-0.0442 0.76585,-0.0486 z m 40.29418,14.32161 c -0.18753,1.7e-4 -0.38442,0.0199 -0.58963,0.0625 -3.31892,0.68927 -2.1742,5.7948 1.10071,5.08962 3.06625,-0.6604 2.30188,-5.15478 -0.51108,-5.15214 z" />
  </g>
</svg>
