<?xml version="1.0" encoding="UTF-8" standalone="no"?>
<!-- Created with Inkscape (http://www.inkscape.org/) -->

<svg
   version="1.1"
   id="svg632"
   width="202.06667"
   height="84.760002"
   viewBox="0 0 202.06667 84.760002"
   sodipodi:docname="OeBB_Train_Tech_cmyk_2021.svg"
   inkscape:version="1.2.1 (9c6d41e, 2022-07-14)"
   xmlns:inkscape="http://www.inkscape.org/namespaces/inkscape"
   xmlns:sodipodi="http://sodipodi.sourceforge.net/DTD/sodipodi-0.dtd"
   xmlns="http://www.w3.org/2000/svg"
   xmlns:svg="http://www.w3.org/2000/svg">
  <defs
     id="defs636" />
  <sodipodi:namedview
     id="namedview634"
     pagecolor="#ffffff"
     bordercolor="#000000"
     borderopacity="0.25"
     inkscape:showpageshadow="2"
     inkscape:pageopacity="0.0"
     inkscape:pagecheckerboard="0"
     inkscape:deskcolor="#d1d1d1"
     showgrid="false"
     inkscape:zoom="2.7843322"
     inkscape:cx="102.1789"
     inkscape:cy="43.277883"
     inkscape:window-width="1680"
     inkscape:window-height="845"
     inkscape:window-x="0"
     inkscape:window-y="44"
     inkscape:window-maximized="0"
     inkscape:current-layer="g642">
    <inkscape:page
       x="0"
       y="0"
       id="page638"
       width="202.06667"
       height="84.760002" />
  </sodipodi:namedview>
  <g
     id="g640"
     inkscape:groupmode="layer"
     inkscape:label="Page 1"
     transform="matrix(1.3333333,0,0,-1.3333333,0,84.76)">
    <g
       id="g642"
       transform="scale(0.1)">
      <path
         d="m 814.281,432.484 h 97.379 c 13.352,0 40.567,-1.843 40.567,-39.73 0,-46.199 -32.461,-47.117 -53.942,-47.117 h -84.004 z m 0,134.454 h 84.957 c 24.817,0 44.383,-9.239 44.383,-38.348 0,-26.793 -17.648,-38.352 -48.195,-38.352 H 814.281 Z M 742.695,287.871 h 157.024 c 21.953,0 60.625,3.234 84.492,23.106 31.009,25.863 36.259,53.586 36.259,71.148 0,40.195 -20.993,69.766 -41.521,85.02 25.301,20.32 32.921,48.968 32.921,69.3 0,13.864 -6.67,88.246 -125.518,88.246 H 742.684 l 0.011,-336.82"
         style="fill:#ed1834;fill-opacity:1;fill-rule:nonzero;stroke:none"
         id="path644" />
      <path
         d="m 483.563,432.484 h 97.359 c 13.379,0 40.57,-1.843 40.57,-39.73 0.012,-46.199 -32.449,-47.117 -53.929,-47.117 h -84 z m 0,134.454 h 84.953 c 24.82,0 44.39,-9.239 44.39,-38.348 0,-26.793 -17.668,-38.352 -48.203,-38.352 h -81.14 z M 411.965,287.871 H 569 c 21.953,0 60.609,3.234 84.484,23.106 31.02,25.863 36.266,53.586 36.266,71.148 0,40.195 -21.004,69.766 -41.523,85.02 25.296,20.32 32.925,48.968 32.925,69.3 0,13.864 -6.679,88.246 -125.523,88.246 H 411.965 v -336.82"
         style="fill:#ed1834;fill-opacity:1;fill-rule:nonzero;stroke:none"
         id="path646" />
      <path
         d="m 254.395,624.473 v 0.218 L 130.797,490.133 h 82.844 l 123.218,134.34 h -82.464"
         style="fill:#ed1834;fill-opacity:1;fill-rule:nonzero;stroke:none"
         id="path648" />
      <path
         d="m 313.59,572.441 -47.774,-52.093 c 12.95,-18.141 20.047,-39.739 20.047,-62.477 0,-28.863 -11.234,-55.992 -31.644,-76.394 -20.41,-20.407 -47.539,-31.661 -76.387,-31.661 -28.863,0 -55.996,11.254 -76.402,31.661 -20.4105,20.402 -31.6487,47.531 -31.6487,76.394 0,58.926 47.4377,106.957 106.1327,107.984 l 56.152,61.227 c -17.324,5.547 -35.527,8.606 -54.234,8.606 C 79.7734,635.688 0,555.922 0,457.871 0,410.367 18.5,365.719 52.0781,332.133 c 33.5899,-33.586 78.2499,-52.09 125.7539,-52.09 47.488,0 92.148,18.504 125.723,52.09 33.593,33.586 52.086,78.234 52.086,125.738 0,42.445 -14.926,82.543 -42.051,114.57"
         style="fill:#ed1834;fill-opacity:1;fill-rule:nonzero;stroke:none"
         id="path650" />
      <path
         d="M 452.262,2.30859 V 123.457 h -42.621 v 18.898 H 517.977 V 123.457 H 475.145 V 2.30859 h -22.883"
         style="fill:#4f4c4c;fill-opacity:1;fill-rule:nonzero;stroke:none"
         id="path652" />
      <path
         d="m 559.148,80.8359 h 14.282 c 15.324,0 31.914,5.8789 31.914,23.7271 0,18.054 -14.281,21.203 -31.078,21.203 H 559.148 Z M 536.684,2.30859 V 142.355 h 41.574 c 24.562,0 50.39,-6.511 50.39,-36.113 0,-18.4764 -14.488,-31.074 -32.125,-33.8045 9.868,-1.4687 16.375,-8.8203 20.575,-19.1094 L 637.887,2.30859 H 612.898 L 595.684,45.7734 c -5.668,14.2774 -10.707,18.2657 -25.196,18.2657 h -11.34 V 2.30859 h -22.464"
         style="fill:#4f4c4c;fill-opacity:1;fill-rule:nonzero;stroke:none"
         id="path654" />
      <path
         d="m 684.516,55.8516 h 53.539 L 711.391,126.188 Z M 642.734,2.30859 697.324,142.355 H 726.09 L 781.098,2.30859 H 757.164 L 743.727,39.0547 H 678.848 L 664.988,2.30859 h -22.254"
         style="fill:#4f4c4c;fill-opacity:1;fill-rule:nonzero;stroke:none"
         id="path656" />
      <path
         d="M 798.129,2.30859 V 142.355 h 22.887 V 2.30859 h -22.887"
         style="fill:#4f4c4c;fill-opacity:1;fill-rule:nonzero;stroke:none"
         id="path658" />
      <path
         d="M 854.41,2.30859 V 142.355 h 32.754 L 947.844,23.0977 V 142.355 h 20.785 V 2.30859 H 935.664 L 874.984,121.566 V 2.30859 H 854.41"
         style="fill:#4f4c4c;fill-opacity:1;fill-rule:nonzero;stroke:none"
         id="path660" />
      <path
         d="M 1088.97,2.30859 V 123.457 h -42.62 v 18.898 h 108.34 v -18.898 h -42.83 V 2.30859 h -22.89"
         style="fill:#4f4c4c;fill-opacity:1;fill-rule:nonzero;stroke:none"
         id="path662" />
      <path
         d="M 1173.39,2.30859 V 142.355 h 80.42 v -17.007 h -57.95 V 82.3047 h 55.22 V 65.5078 h -55.22 V 19.3164 h 60.05 V 2.30859 h -82.52"
         style="fill:#4f4c4c;fill-opacity:1;fill-rule:nonzero;stroke:none"
         id="path664" />
      <path
         d="M 1383.16,6.08984 C 1373.3,1.67969 1359.86,0 1348.94,0 c -44.51,0 -74.12,27.2969 -74.12,72.2266 0,42.8324 31.29,72.2264 74.12,72.2264 10.71,0 23.94,-1.68 33.8,-5.25 l -1.26,-18.476 c -8.6,3.992 -20.15,5.878 -30.02,5.878 -32.75,0 -52.7,-23.093 -52.7,-54.3784 0,-32.3321 18.9,-54.3789 52.28,-54.3789 10.71,0 21.42,1.6796 30.86,6.0898 l 1.26,-17.84766"
         style="fill:#4f4c4c;fill-opacity:1;fill-rule:nonzero;stroke:none"
         id="path666" />
      <path
         d="M 1406.91,2.30859 V 142.355 h 22.88 V 83.7734 h 62.78 v 58.5816 h 22.89 V 2.30859 h -22.89 V 64.8789 h -62.78 V 2.30859 h -22.88"
         style="fill:#4f4c4c;fill-opacity:1;fill-rule:nonzero;stroke:none"
         id="path668" />
    </g>
  </g>
</svg>
