<?xml version="1.0" encoding="UTF-8" standalone="no"?>
<!-- Created with Inkscape (http://www.inkscape.org/) -->

<svg
   width="32mm"
   height="32mm"
   viewBox="0 0 32 31.999999"
   version="1.1"
   id="svg541"
   inkscape:version="1.2.2 (b0a8486541, 2022-12-01)"
   sodipodi:docname="embedded-focus-solo.svg"
   inkscape:export-filename="../favicon.png"
   inkscape:export-xdpi="300"
   inkscape:export-ydpi="300"
   xmlns:inkscape="http://www.inkscape.org/namespaces/inkscape"
   xmlns:sodipodi="http://sodipodi.sourceforge.net/DTD/sodipodi-0.dtd"
   xmlns="http://www.w3.org/2000/svg"
   xmlns:svg="http://www.w3.org/2000/svg">
  <sodipodi:namedview
     id="namedview543"
     pagecolor="#ffffff"
     bordercolor="#000000"
     borderopacity="0.25"
     inkscape:showpageshadow="2"
     inkscape:pageopacity="0"
     inkscape:pagecheckerboard="true"
     inkscape:deskcolor="#d1d1d1"
     inkscape:document-units="mm"
     showgrid="false"
     inkscape:zoom="2.587745"
     inkscape:cx="56.033343"
     inkscape:cy="-21.833682"
     inkscape:window-width="3438"
     inkscape:window-height="1390"
     inkscape:window-x="0"
     inkscape:window-y="24"
     inkscape:window-maximized="1"
     inkscape:current-layer="layer1" />
  <defs
     id="defs538" />
  <g
     inkscape:label="Layer 1"
     inkscape:groupmode="layer"
     id="layer1"
     transform="translate(-117.96874,-164.59871)">
    <g
       id="g1245"
       transform="matrix(1.22745,0,0,1.22745,-26.83199,-30.962516)">
      <g
         id="g3408"
         transform="translate(26.755849,38.57805)">
        <path
           style="color:#000000;fill:#f25c05;stroke-miterlimit:10;-inkscape-stroke:none"
           d="m 106.35742,136.79102 c -1.25217,0.51883 -1.85484,1.97422 -1.33594,3.22656 0.51884,1.25217 1.97423,1.85483 3.22657,1.33594 1.25216,-0.51884 1.85484,-1.97423 1.33593,-3.22657 -0.51882,-1.25218 -1.97423,-1.85483 -3.22656,-1.33593 z m 1.35156,1.29882 c 0.2489,0.10312 0.4588,0.30428 0.57227,0.57813 0.22687,0.54754 -0.0265,1.15587 -0.57422,1.38281 -0.54754,0.22687 -1.15587,-0.0265 -1.38281,-0.57422 -0.22687,-0.54753 0.0265,-1.15587 0.57422,-1.38281 0.27376,-0.11343 0.56165,-0.10702 0.81054,-0.004 z"
           id="path326" />
        <path
           style="color:#000000;fill:#f25c05;stroke-miterlimit:10;-inkscape-stroke:none"
           d="m 100.24805,126.20703 c -1.252166,0.51884 -1.854842,1.97422 -1.335941,3.22656 0.518834,1.25218 1.974231,1.85484 3.226561,1.33594 1.25217,-0.51883 1.85485,-1.97422 1.33594,-3.22656 -0.51884,-1.25217 -1.97423,-1.85483 -3.22656,-1.33594 z m 1.35156,1.30078 c 0.24889,0.10312 0.45684,0.30232 0.57031,0.57617 0.22687,0.54754 -0.0246,1.15587 -0.57226,1.38282 -0.54753,0.22686 -1.15588,-0.0246 -1.38282,-0.57227 -0.226866,-0.54754 0.0246,-1.15587 0.57227,-1.38281 0.27377,-0.11344 0.56361,-0.10702 0.8125,-0.004 z"
           id="path330" />
        <path
           style="color:#000000;fill:#f25c05;stroke-miterlimit:10;-inkscape-stroke:none"
           d="m 94.675781,127.7832 -3.46289,5.99805 3.46289,5.99609 h 6.923829 l 6.11133,-10.58203 h 5.29492 l 2.64844,4.58594 -2.64844,4.58594 h -4.17578 v 1.41015 h 4.99023 l 3.46289,-5.99609 -3.46289,-5.99805 h -6.92383 l -6.11132,10.58399 h -5.294926 l -2.648437,-4.58594 2.648437,-4.58594 h 4.173828 v -1.41211 z"
           id="path334" />
      </g>
    </g>
  </g>
</svg>
