<?xml version="1.0" encoding="UTF-8" standalone="no"?>
<!-- Created with Inkscape (http://www.inkscape.org/) -->

<svg
   width="139.66269mm"
   height="15.518869mm"
   viewBox="0 0 139.66269 15.51887"
   version="1.1"
   id="svg1085"
   inkscape:version="1.2.2 (b0a8486541, 2022-12-01)"
   sodipodi:docname="embedded_focus_logo.svg"
   inkscape:export-filename="embedded_focus_logo.webp"
   inkscape:export-xdpi="300"
   inkscape:export-ydpi="300"
   xmlns:inkscape="http://www.inkscape.org/namespaces/inkscape"
   xmlns:sodipodi="http://sodipodi.sourceforge.net/DTD/sodipodi-0.dtd"
   xmlns="http://www.w3.org/2000/svg"
   xmlns:svg="http://www.w3.org/2000/svg">
  <sodipodi:namedview
     id="namedview1087"
     pagecolor="#ffffff"
     bordercolor="#000000"
     borderopacity="0.25"
     inkscape:showpageshadow="2"
     inkscape:pageopacity="0.0"
     inkscape:pagecheckerboard="0"
     inkscape:deskcolor="#d1d1d1"
     inkscape:document-units="mm"
     showgrid="false"
     inkscape:zoom="1.829812"
     inkscape:cx="-122.96345"
     inkscape:cy="-96.457996"
     inkscape:window-width="3438"
     inkscape:window-height="1390"
     inkscape:window-x="0"
     inkscape:window-y="24"
     inkscape:window-maximized="1"
     inkscape:current-layer="layer1" />
  <defs
     id="defs1082">
    <clipPath
       clipPathUnits="userSpaceOnUse"
       id="clipPath3258">
      <g
         id="g3264">
        <g
           id="g3262"
           transform="matrix(0.35277777,0,0,-0.35277777,-90.488598,729.3431)">
          <path
             d="M 0,2970 H 2100 V 0 H 0 Z"
             id="path3260" />
        </g>
      </g>
    </clipPath>
    <clipPath
       clipPathUnits="userSpaceOnUse"
       id="clipPath3273">
      <g
         id="g3279">
        <g
           id="g3277"
           transform="matrix(0.35277777,0,0,-0.35277777,-90.488593,729.3431)">
          <path
             d="M 0,2970 H 2100 V 0 H 0 Z"
             id="path3275" />
        </g>
      </g>
    </clipPath>
    <clipPath
       clipPathUnits="userSpaceOnUse"
       id="clipPath3288">
      <g
         id="g3294">
        <g
           id="g3292"
           transform="matrix(0.35277777,0,0,-0.35277777,-90.488599,729.3431)">
          <path
             d="M 0,2970 H 2100 V 0 H 0 Z"
             id="path3290" />
        </g>
      </g>
    </clipPath>
  </defs>
  <g
     inkscape:label="Layer 1"
     inkscape:groupmode="layer"
     id="layer1"
     transform="translate(-23.718935,-126.02119)">
    <g
       aria-label="[]"
       transform="scale(0.98894362,1.01118)"
       id="text338"
       style="font-weight:500;font-size:14.6528px;font-family:'Barlow Medium';-inkscape-font-specification:Barlow-Medium;fill:#f25c05;stroke-width:0.348877">
      <path
         d="m 24.130641,138.99782 q -0.146528,0 -0.146528,-0.14653 v -13.0996 q 0,-0.14653 0.146528,-0.14653 h 3.077088 q 0.146528,0 0.146528,0.14653 v 0.93778 q 0,0.14653 -0.146528,0.14653 h -1.758336 q -0.05861,0 -0.05861,0.0586 v 10.82842 q 0,0.0586 0.05861,0.0586 h 1.772988 q 0.146528,0 0.146528,0.14653 v 0.92312 q 0,0.14653 -0.146528,0.14653 z"
         id="path3808" />
      <path
         d="m 165.20824,138.85129 q 0,0.14653 -0.14653,0.14653 h -3.09174 q -0.14653,0 -0.14653,-0.14653 v -0.92312 q 0,-0.14653 0.14653,-0.14653 h 1.77299 q 0.0586,0 0.0586,-0.0586 v -10.82842 q 0,-0.0586 -0.0586,-0.0586 h -1.77299 q -0.14653,0 -0.14653,-0.14653 v -0.93778 q 0,-0.14653 0.14653,-0.14653 h 3.09174 q 0.14653,0 0.14653,0.14653 z"
         id="path3810" />
    </g>
    <g
       aria-label="FOCUS"
       id="text342"
       style="font-weight:600;font-size:10.5443px;font-family:Barlow;-inkscape-font-specification:'Barlow, Semi-Bold';fill:#1f80a6;stroke-width:0.352778">
      <path
         d="m 126.85623,131.00747 q 0,0.0527 -0.0422,0.0949 -0.0316,0.0316 -0.0844,0.0316 h -3.58506 q -0.0527,0 -0.0527,0.0527 v 1.97178 q 0,0.0527 0.0527,0.0527 h 2.41465 q 0.0527,0 0.0844,0.0422 0.0422,0.0316 0.0422,0.0844 v 0.80136 q 0,0.0527 -0.0422,0.0949 -0.0316,0.0316 -0.0844,0.0316 h -2.41465 q -0.0527,0 -0.0527,0.0527 v 3.01566 q 0,0.0527 -0.0422,0.0949 -0.0316,0.0316 -0.0844,0.0316 h -0.97008 q -0.0527,0 -0.0949,-0.0316 -0.0316,-0.0422 -0.0316,-0.0949 v -7.12794 q 0,-0.0527 0.0316,-0.0844 0.0422,-0.0422 0.0949,-0.0422 h 4.73439 q 0.0527,0 0.0844,0.0422 0.0422,0.0316 0.0422,0.0844 z"
         id="path3109" />
      <path
         d="m 130.29866,137.56603 q -0.79082,0 -1.40239,-0.31633 -0.61157,-0.32687 -0.94899,-0.91735 -0.32687,-0.59048 -0.32687,-1.36022 v -2.4041 q 0,-0.75919 0.33742,-1.33912 0.33742,-0.59049 0.93844,-0.90681 0.61157,-0.32688 1.40239,-0.32688 0.80137,0 1.4024,0.32688 0.61156,0.31632 0.94898,0.90681 0.33742,0.57993 0.33742,1.33912 v 2.4041 q 0,0.76974 -0.33742,1.36022 -0.33742,0.59048 -0.94898,0.91735 -0.60103,0.31633 -1.4024,0.31633 z m 0,-1.05443 q 0.66429,0 1.06498,-0.41123 0.40068,-0.41123 0.40068,-1.08606 v -2.45682 q 0,-0.68538 -0.40068,-1.09661 -0.40069,-0.41123 -1.06498,-0.41123 -0.65374,0 -1.05443,0.41123 -0.40068,0.41123 -0.40068,1.09661 v 2.45682 q 0,0.67483 0.40068,1.08606 0.40069,0.41123 1.05443,0.41123 z"
         id="path3111" />
      <path
         d="m 136.76837,137.54494 q -0.79083,0 -1.39185,-0.30578 -0.60103,-0.31633 -0.9279,-0.87518 -0.32687,-0.55885 -0.32687,-1.29695 v -2.60444 q 0,-0.7381 0.32687,-1.29695 0.32687,-0.55885 0.9279,-0.86463 0.60102,-0.30579 1.39185,-0.30579 0.78027,0 1.3813,0.29524 0.60102,0.29524 0.9279,0.833 0.32687,0.53776 0.32687,1.24423 0,0.0527 -0.0422,0.0949 -0.0316,0.0316 -0.0844,0.0316 l -0.97008,0.0527 q -0.12653,0 -0.12653,-0.11598 0,-0.62212 -0.39014,-1.00171 -0.37959,-0.3796 -1.02279,-0.3796 -0.64321,0 -1.03335,0.3796 -0.39014,0.37959 -0.39014,1.00171 v 2.68879 q 0,0.61157 0.39014,0.99117 0.39014,0.37959 1.03335,0.37959 0.6432,0 1.02279,-0.36905 0.39014,-0.37959 0.39014,-1.00171 0,-0.11599 0.12653,-0.11599 l 0.97008,0.0422 q 0.0527,0 0.0844,0.0316 0.0422,0.0316 0.0422,0.0738 0,0.71702 -0.32687,1.26532 -0.32688,0.53776 -0.9279,0.833 -0.60103,0.29524 -1.3813,0.29524 z"
         id="path3113" />
      <path
         d="m 143.22377,137.54494 q -0.78028,0 -1.3813,-0.30578 -0.60103,-0.30579 -0.93845,-0.86464 -0.32687,-0.56939 -0.32687,-1.30749 v -4.86092 q 0,-0.0527 0.0316,-0.0844 0.0422,-0.0422 0.0949,-0.0422 h 0.97008 q 0.0527,0 0.0844,0.0422 0.0422,0.0316 0.0422,0.0844 v 4.88201 q 0,0.62211 0.39014,1.01225 0.39014,0.39014 1.03334,0.39014 0.6432,0 1.03334,-0.39014 0.39014,-0.39014 0.39014,-1.01225 v -4.88201 q 0,-0.0527 0.0316,-0.0844 0.0422,-0.0422 0.0949,-0.0422 h 0.97008 q 0.0527,0 0.0844,0.0422 0.0422,0.0316 0.0422,0.0844 v 4.86092 q 0,0.7381 -0.32687,1.30749 -0.32688,0.55885 -0.9279,0.86464 -0.60103,0.30578 -1.39185,0.30578 z"
         id="path3115" />
      <path
         d="m 149.69834,137.54494 q -0.82246,0 -1.43403,-0.26361 -0.61157,-0.2636 -0.94898,-0.7381 -0.32688,-0.47449 -0.32688,-1.11769 v -0.26361 q 0,-0.0527 0.0316,-0.0844 0.0422,-0.0422 0.0949,-0.0422 h 0.93844 q 0.0527,0 0.0844,0.0422 0.0422,0.0316 0.0422,0.0844 v 0.20034 q 0,0.48504 0.43232,0.81191 0.43231,0.31633 1.18096,0.31633 0.6432,0 0.97007,-0.27415 0.32688,-0.27415 0.32688,-0.70647 0,-0.29524 -0.17926,-0.49558 -0.17925,-0.21089 -0.51667,-0.3796 -0.32687,-0.1687 -0.99116,-0.42177 -0.74865,-0.27415 -1.2126,-0.51667 -0.46395,-0.24252 -0.78027,-0.65375 -0.30579,-0.42177 -0.30579,-1.04388 0,-0.9279 0.67484,-1.46566 0.67483,-0.53776 1.80307,-0.53776 0.79082,0 1.39185,0.27415 0.61157,0.27416 0.94899,0.76974 0.33741,0.48504 0.33741,1.12824 v 0.17925 q 0,0.0527 -0.0422,0.0949 -0.0316,0.0316 -0.0844,0.0316 h -0.94898 q -0.0527,0 -0.0949,-0.0316 -0.0316,-0.0422 -0.0316,-0.0949 v -0.11599 q 0,-0.49558 -0.41122,-0.833 -0.40069,-0.34796 -1.1177,-0.34796 -0.57994,0 -0.90681,0.24252 -0.31633,0.24252 -0.31633,0.68538 0,0.31633 0.16871,0.51667 0.16871,0.20034 0.50613,0.36905 0.33741,0.15817 1.04388,0.41123 0.74865,0.2847 1.19151,0.51667 0.4534,0.23197 0.76973,0.65375 0.32688,0.41122 0.32688,1.03334 0,0.94899 -0.70647,1.50783 -0.69593,0.55885 -1.90852,0.55885 z"
         id="path3117" />
    </g>
    <g
       aria-label="EMBEDDED"
       transform="scale(0.9889439,1.0111797)"
       id="text346"
       style="font-weight:600;font-size:10.4663px;font-family:Barlow;-inkscape-font-specification:'Barlow, Semi-Bold';fill:#1f80a6;stroke-width:0.348877">
      <path
         d="m 41.025206,129.55936 q 0,0.0523 -0.04186,0.0942 -0.0314,0.0314 -0.08373,0.0314 h -3.569008 q -0.05233,0 -0.05233,0.0523 v 1.9572 q 0,0.0523 0.05233,0.0523 h 2.396782 q 0.05233,0 0.08373,0.0419 0.04187,0.0314 0.04187,0.0837 v 0.79544 q 0,0.0523 -0.04187,0.0942 -0.0314,0.0314 -0.08373,0.0314 h -2.396782 q -0.05233,0 -0.05233,0.0523 v 2.02 q 0,0.0523 0.05233,0.0523 h 3.569008 q 0.05233,0 0.08373,0.0419 0.04186,0.0314 0.04186,0.0837 v 0.79544 q 0,0.0523 -0.04186,0.0942 -0.0314,0.0314 -0.08373,0.0314 h -4.709835 q -0.05233,0 -0.0942,-0.0314 -0.0314,-0.0419 -0.0314,-0.0942 v -7.07522 q 0,-0.0523 0.0314,-0.0837 0.04187,-0.0419 0.0942,-0.0419 h 4.709835 q 0.05233,0 0.08373,0.0419 0.04186,0.0314 0.04186,0.0837 z"
         id="path3092" />
      <path
         d="m 46.886349,128.72206 q 0.05233,-0.0837 0.146528,-0.0837 h 0.9629 q 0.05233,0 0.08373,0.0419 0.04187,0.0314 0.04187,0.0837 v 7.07522 q 0,0.0523 -0.04187,0.0942 -0.0314,0.0314 -0.08373,0.0314 h -0.9629 q -0.05233,0 -0.0942,-0.0314 -0.0314,-0.0419 -0.0314,-0.0942 v -4.99242 q 0,-0.0314 -0.0314,-0.0419 -0.02093,-0.0105 -0.0314,0.0209 l -1.308287,2.00953 q -0.05233,0.0837 -0.146529,0.0837 h -0.481449 q -0.0942,0 -0.146529,-0.0837 l -1.318753,-1.99906 q -0.01047,-0.0314 -0.04187,-0.0209 -0.02093,0.0105 -0.02093,0.0419 v 4.98196 q 0,0.0523 -0.04187,0.0942 -0.0314,0.0314 -0.08373,0.0314 h -0.962899 q -0.05233,0 -0.0942,-0.0314 -0.0314,-0.0419 -0.0314,-0.0942 v -7.07522 q 0,-0.0523 0.0314,-0.0837 0.04187,-0.0419 0.0942,-0.0419 h 0.962899 q 0.0942,0 0.146528,0.0837 l 1.706007,2.58517 q 0.02093,0.0209 0.04187,0.0209 0.02093,0 0.0314,-0.0209 z"
         id="path3094" />
      <path
         d="m 53.613054,132.14454 q -0.0628,0.0314 0,0.0628 1.067563,0.50238 1.067563,1.72693 0,0.9943 -0.669843,1.51762 -0.659377,0.51285 -1.72694,0.51285 h -2.637508 q -0.05233,0 -0.0942,-0.0314 -0.0314,-0.0419 -0.0314,-0.0942 v -7.07522 q 0,-0.0523 0.0314,-0.0837 0.04187,-0.0419 0.0942,-0.0419 h 2.553778 q 1.140826,0 1.758338,0.49191 0.617512,0.49192 0.617512,1.48622 0,1.09896 -0.9629,1.52808 z m -2.825901,-2.45958 q -0.05233,0 -0.05233,0.0523 v 1.93626 q 0,0.0523 0.05233,0.0523 h 1.412951 q 0.554714,0 0.868703,-0.26166 0.324455,-0.27213 0.324455,-0.74311 0,-0.48145 -0.324455,-0.75357 -0.313989,-0.28259 -0.868703,-0.28259 z m 1.496681,5.22268 q 0.544248,0 0.858237,-0.29306 0.324455,-0.29305 0.324455,-0.79543 0,-0.51285 -0.324455,-0.79544 -0.324456,-0.29306 -0.87917,-0.29306 h -1.475748 q -0.05233,0 -0.05233,0.0523 v 2.07233 q 0,0.0523 0.05233,0.0523 z"
         id="path3096" />
      <path
         d="m 60.837958,129.55936 q 0,0.0523 -0.04187,0.0942 -0.0314,0.0314 -0.08373,0.0314 h -3.569009 q -0.05233,0 -0.05233,0.0523 v 1.9572 q 0,0.0523 0.05233,0.0523 h 2.396783 q 0.05233,0 0.08373,0.0419 0.04187,0.0314 0.04187,0.0837 v 0.79544 q 0,0.0523 -0.04187,0.0942 -0.0314,0.0314 -0.08373,0.0314 h -2.396783 q -0.05233,0 -0.05233,0.0523 v 2.02 q 0,0.0523 0.05233,0.0523 h 3.569009 q 0.05233,0 0.08373,0.0419 0.04187,0.0314 0.04187,0.0837 v 0.79544 q 0,0.0523 -0.04187,0.0942 -0.0314,0.0314 -0.08373,0.0314 h -4.709835 q -0.05233,0 -0.0942,-0.0314 -0.0314,-0.0419 -0.0314,-0.0942 v -7.07522 q 0,-0.0523 0.0314,-0.0837 0.04187,-0.0419 0.0942,-0.0419 h 4.709835 q 0.05233,0 0.08373,0.0419 0.04187,0.0314 0.04187,0.0837 z"
         id="path3098" />
      <path
         d="m 62.104395,135.96474 q -0.05233,0 -0.0942,-0.0314 -0.0314,-0.0419 -0.0314,-0.0942 v -7.07522 q 0,-0.0523 0.0314,-0.0837 0.04187,-0.0419 0.0942,-0.0419 h 2.553778 q 0.743107,0 1.308287,0.26165 0.56518,0.26166 0.868703,0.75358 0.313989,0.48145 0.313989,1.13036 v 3.03523 q 0,0.64891 -0.313989,1.14082 -0.303523,0.48145 -0.868703,0.74311 -0.56518,0.26166 -1.308287,0.26166 z m 1.088496,-1.09896 q 0,0.0523 0.05233,0.0523 h 1.465282 q 0.554714,0 0.879169,-0.34539 0.334922,-0.35586 0.345388,-0.94197 v -2.64797 q 0,-0.59658 -0.334921,-0.94197 -0.334922,-0.35585 -0.900102,-0.35585 h -1.454816 q -0.05233,0 -0.05233,0.0523 z"
         id="path3100" />
      <path
         d="m 68.523371,135.96474 q -0.05233,0 -0.0942,-0.0314 -0.0314,-0.0419 -0.0314,-0.0942 v -7.07522 q 0,-0.0523 0.0314,-0.0837 0.04187,-0.0419 0.0942,-0.0419 h 2.553777 q 0.743108,0 1.308288,0.26165 0.56518,0.26166 0.868703,0.75358 0.313989,0.48145 0.313989,1.13036 v 3.03523 q 0,0.64891 -0.313989,1.14082 -0.303523,0.48145 -0.868703,0.74311 -0.56518,0.26166 -1.308288,0.26166 z m 1.088495,-1.09896 q 0,0.0523 0.05233,0.0523 h 1.465282 q 0.554714,0 0.879169,-0.34539 0.334922,-0.35586 0.345388,-0.94197 v -2.64797 q 0,-0.59658 -0.334922,-0.94197 -0.334921,-0.35585 -0.900101,-0.35585 h -1.454816 q -0.05233,0 -0.05233,0.0523 z"
         id="path3102" />
      <path
         d="m 79.777808,129.55936 q 0,0.0523 -0.04186,0.0942 -0.0314,0.0314 -0.08373,0.0314 h -3.569009 q -0.05233,0 -0.05233,0.0523 v 1.9572 q 0,0.0523 0.05233,0.0523 h 2.396783 q 0.05233,0 0.08373,0.0419 0.04187,0.0314 0.04187,0.0837 v 0.79544 q 0,0.0523 -0.04187,0.0942 -0.0314,0.0314 -0.08373,0.0314 h -2.396783 q -0.05233,0 -0.05233,0.0523 v 2.02 q 0,0.0523 0.05233,0.0523 h 3.569009 q 0.05233,0 0.08373,0.0419 0.04186,0.0314 0.04186,0.0837 v 0.79544 q 0,0.0523 -0.04186,0.0942 -0.0314,0.0314 -0.08373,0.0314 h -4.709835 q -0.05233,0 -0.0942,-0.0314 -0.0314,-0.0419 -0.0314,-0.0942 v -7.07522 q 0,-0.0523 0.0314,-0.0837 0.04187,-0.0419 0.0942,-0.0419 h 4.709835 q 0.05233,0 0.08373,0.0419 0.04186,0.0314 0.04186,0.0837 z"
         id="path3104" />
      <path
         d="m 81.044245,135.96474 q -0.05233,0 -0.0942,-0.0314 -0.0314,-0.0419 -0.0314,-0.0942 v -7.07522 q 0,-0.0523 0.0314,-0.0837 0.04187,-0.0419 0.0942,-0.0419 h 2.553777 q 0.743108,0 1.308288,0.26165 0.56518,0.26166 0.868703,0.75358 0.313989,0.48145 0.313989,1.13036 v 3.03523 q 0,0.64891 -0.313989,1.14082 -0.303523,0.48145 -0.868703,0.74311 -0.56518,0.26166 -1.308288,0.26166 z m 1.088495,-1.09896 q 0,0.0523 0.05233,0.0523 h 1.465282 q 0.554714,0 0.879169,-0.34539 0.334922,-0.35586 0.345388,-0.94197 v -2.64797 q 0,-0.59658 -0.334922,-0.94197 -0.334921,-0.35585 -0.900101,-0.35585 h -1.454816 q -0.05233,0 -0.05233,0.0523 z"
         id="path3106" />
    </g>
    <g
       id="g3408">
      <path
         style="color:#000000;fill:#f25c05;stroke-miterlimit:10;-inkscape-stroke:none"
         d="m 106.35742,136.79102 c -1.25217,0.51883 -1.85484,1.97422 -1.33594,3.22656 0.51884,1.25217 1.97423,1.85483 3.22657,1.33594 1.25216,-0.51884 1.85484,-1.97423 1.33593,-3.22657 -0.51882,-1.25218 -1.97423,-1.85483 -3.22656,-1.33593 z m 1.35156,1.29882 c 0.2489,0.10312 0.4588,0.30428 0.57227,0.57813 0.22687,0.54754 -0.0265,1.15587 -0.57422,1.38281 -0.54754,0.22687 -1.15587,-0.0265 -1.38281,-0.57422 -0.22687,-0.54753 0.0265,-1.15587 0.57422,-1.38281 0.27376,-0.11343 0.56165,-0.10702 0.81054,-0.004 z"
         id="path326" />
      <path
         style="color:#000000;fill:#f25c05;stroke-miterlimit:10;-inkscape-stroke:none"
         d="m 100.24805,126.20703 c -1.252166,0.51884 -1.854842,1.97422 -1.335941,3.22656 0.518834,1.25218 1.974231,1.85484 3.226561,1.33594 1.25217,-0.51883 1.85485,-1.97422 1.33594,-3.22656 -0.51884,-1.25217 -1.97423,-1.85483 -3.22656,-1.33594 z m 1.35156,1.30078 c 0.24889,0.10312 0.45684,0.30232 0.57031,0.57617 0.22687,0.54754 -0.0246,1.15587 -0.57226,1.38282 -0.54753,0.22686 -1.15588,-0.0246 -1.38282,-0.57227 -0.226866,-0.54754 0.0246,-1.15587 0.57227,-1.38281 0.27377,-0.11344 0.56361,-0.10702 0.8125,-0.004 z"
         id="path330" />
      <path
         style="color:#000000;fill:#f25c05;stroke-miterlimit:10;-inkscape-stroke:none"
         d="m 94.675781,127.7832 -3.46289,5.99805 3.46289,5.99609 h 6.923829 l 6.11133,-10.58203 h 5.29492 l 2.64844,4.58594 -2.64844,4.58594 h -4.17578 v 1.41015 h 4.99023 l 3.46289,-5.99609 -3.46289,-5.99805 h -6.92383 l -6.11132,10.58399 h -5.294926 l -2.648437,-4.58594 2.648437,-4.58594 h 4.173828 v -1.41211 z"
         id="path334" />
    </g>
  </g>
</svg>
