<?xml version="1.0" encoding="UTF-8"?><svg id="b" xmlns="http://www.w3.org/2000/svg" width="397" height="45" viewBox="0 0 397 45"><path d="M262.4,22.5l-9.81-17h-19.63l-17.32,30h-15.01l-7.51-13,7.51-13h9.46c.07.23.15.46.24.68,1.12,2.69,3.73,4.32,6.48,4.32.89,0,1.8-.17,2.67-.53,3.57-1.48,5.26-5.58,3.79-9.15-1.48-3.56-5.58-5.26-9.15-3.79-2.02.84-3.44,2.52-4.02,4.47h-11.77l-9.81,17,9.81,17h19.63l17.32-30h15.01l7.51,13-7.51,13h-9.46c-.07-.23-.15-.45-.24-.68-1.48-3.56-5.58-5.26-9.15-3.79-3.57,1.48-5.27,5.58-3.79,9.15,1.12,2.69,3.73,4.32,6.48,4.32.89,0,1.8-.17,2.67-.53,2.02-.84,3.44-2.52,4.02-4.47h11.77l9.81-17ZM215.64,4.73c.37-.16.76-.23,1.14-.23,1.18,0,2.3.7,2.78,1.85.63,1.53-.1,3.29-1.62,3.92-1.53.63-3.29-.09-3.92-1.62-.63-1.53.1-3.29,1.62-3.92ZM235.25,40.27c-1.53.64-3.29-.1-3.92-1.62-.63-1.53.1-3.29,1.62-3.92,1.53-.63,3.29.1,3.92,1.62.63,1.53-.1,3.29-1.62,3.92Z" fill="#f27f1b"/><path d="M.54,41.27V3.73c0-.28.14-.42.41-.42h8.63c.27,0,.41.14.41.42v2.69c0,.28-.14.42-.41.42h-4.93c-.11,0-.16.06-.16.17v31.04c0,.11.05.17.16.17h4.97c.27,0,.41.14.41.42v2.65c0,.28-.14.42-.41.42H.96c-.27,0-.41-.14-.41-.42Z" fill="#f27f1b"/><path d="M396.05,41.69h-8.67c-.27,0-.41-.14-.41-.42v-2.65c0-.28.14-.42.41-.42h4.97c.11,0,.16-.06.16-.17V7c0-.11-.05-.17-.16-.17h-4.97c-.27,0-.41-.14-.41-.42v-2.69c0-.28.14-.42.41-.42h8.67c.27,0,.41.14.41.42v37.55c0,.28-.14.42-.41.42Z" fill="#f27f1b"/><path d="M296.44,14.86c-.07.07-.16.11-.26.11h-10.2c-.1,0-.15.05-.15.15v5.61c0,.1.05.15.15.15h6.87c.1,0,.18.04.25.1.07.07.1.16.1.25v2.28c0,.1-.04.19-.1.25s-.16.11-.25.11h-6.87c-.1,0-.15.05-.15.15v8.58c0,.1-.04.19-.1.25s-.16.11-.26.11h-2.76c-.1,0-.18-.04-.25-.11-.07-.07-.1-.15-.1-.25V12.33c0-.1.03-.18.1-.25s.15-.11.25-.11h13.47c.1,0,.19.04.26.11.07.07.1.15.1.25v2.28c0,.1-.04.19-.1.25Z" fill="#24a3bf"/><path d="M302.29,32.35c-1.16-.61-2.05-1.47-2.68-2.59s-.95-2.41-.95-3.87v-6.84c0-1.44.32-2.71.96-3.83.64-1.11,1.54-1.97,2.69-2.58,1.15-.61,2.47-.92,3.97-.92s2.85.31,4,.92c1.15.61,2.04,1.47,2.69,2.58.64,1.11.96,2.38.96,3.83v6.84c0,1.46-.32,2.75-.96,3.87-.64,1.12-1.54,1.99-2.69,2.59-1.15.61-2.49.92-4,.92s-2.83-.3-3.99-.92ZM309.31,29.1c.76-.78,1.14-1.81,1.14-3.09v-6.99c0-1.3-.38-2.34-1.14-3.12-.76-.78-1.77-1.17-3.03-1.17s-2.24.39-3,1.17c-.76.78-1.14,1.82-1.14,3.12v6.99c0,1.28.38,2.31,1.14,3.09s1.76,1.17,3,1.17,2.27-.39,3.03-1.17Z" fill="#24a3bf"/><path d="M320.65,32.32c-1.14-.59-2.02-1.42-2.64-2.48-.62-1.06-.93-2.29-.93-3.69v-7.41c0-1.4.31-2.63.93-3.69.62-1.06,1.5-1.88,2.64-2.46s2.46-.87,3.96-.87,2.79.28,3.93.84c1.14.56,2.02,1.35,2.64,2.37.62,1.02.93,2.2.93,3.54,0,.1-.04.19-.1.25s-.16.11-.26.11l-2.76.15c-.24,0-.36-.11-.36-.33,0-1.18-.37-2.13-1.1-2.85s-1.71-1.08-2.92-1.08-2.2.36-2.94,1.08c-.74.72-1.11,1.67-1.11,2.85v7.65c0,1.16.37,2.1,1.11,2.82.74.72,1.72,1.08,2.94,1.08s2.19-.36,2.92-1.07,1.1-1.65,1.1-2.83c0-.22.12-.33.36-.33l2.76.12c.1,0,.19.03.26.09.07.06.1.13.1.21,0,1.36-.31,2.56-.93,3.58-.62,1.03-1.5,1.83-2.64,2.39-1.14.56-2.45.84-3.93.84s-2.82-.29-3.96-.88Z" fill="#24a3bf"/><path d="M338.98,32.34c-1.14-.58-2.03-1.41-2.66-2.48-.63-1.07-.95-2.3-.95-3.7v-13.83c0-.1.04-.18.11-.25.07-.07.15-.11.25-.11h2.76c.1,0,.18.04.25.11s.11.15.11.25v13.89c0,1.18.37,2.14,1.11,2.88.74.74,1.72,1.11,2.94,1.11s2.2-.37,2.94-1.11,1.11-1.7,1.11-2.88v-13.89c0-.1.04-.18.11-.25.07-.07.15-.11.25-.11h2.76c.1,0,.18.04.25.11s.11.15.11.25v13.83c0,1.4-.31,2.63-.93,3.7-.62,1.07-1.5,1.9-2.64,2.48s-2.46.87-3.96.87-2.79-.29-3.93-.87Z" fill="#24a3bf"/><path d="M357.18,32.46c-1.16-.5-2.05-1.2-2.68-2.1-.63-.9-.95-1.96-.95-3.18v-.75c0-.1.04-.18.11-.25.07-.07.15-.11.25-.11h2.67c.1,0,.18.04.25.11s.11.16.11.25v.57c0,.92.41,1.68,1.23,2.29s1.94.92,3.36.92c1.22,0,2.14-.26,2.76-.78.62-.52.93-1.19.93-2.01,0-.56-.17-1.04-.51-1.42-.34-.39-.83-.75-1.46-1.07-.63-.32-1.58-.72-2.83-1.2-1.42-.52-2.57-1.01-3.45-1.47s-1.62-1.08-2.21-1.88-.88-1.77-.88-2.96c0-1.76.64-3.15,1.92-4.17,1.28-1.02,2.99-1.53,5.13-1.53,1.5,0,2.83.26,3.98.78,1.15.52,2.04,1.25,2.68,2.17s.96,2.01.96,3.23v.51c0,.1-.04.18-.1.25-.07.07-.16.1-.25.1h-2.7c-.1,0-.19-.03-.25-.1-.07-.07-.11-.15-.11-.25v-.33c0-.94-.38-1.74-1.16-2.38-.77-.65-1.83-.98-3.19-.98-1.1,0-1.96.23-2.57.69s-.92,1.11-.92,1.95c0,.6.16,1.09.48,1.47.32.38.8.72,1.44,1.04.64.31,1.63.71,2.97,1.18,1.42.54,2.55,1.03,3.4,1.47.85.44,1.58,1.06,2.19,1.85.61.79.92,1.77.92,2.96,0,1.8-.67,3.23-2,4.29-1.33,1.06-3.15,1.59-5.45,1.59-1.56,0-2.92-.25-4.08-.75Z" fill="#24a3bf"/><path d="M42.11,14.89c-.07.07-.15.11-.25.11h-10c-.1,0-.15.05-.15.15v5.61c0,.1.05.15.15.15h6.72c.1,0,.18.04.25.1.07.07.1.16.1.25v2.28c0,.1-.03.19-.1.25-.07.07-.15.11-.25.11h-6.72c-.1,0-.15.05-.15.15v5.79c0,.1.05.15.15.15h10c.1,0,.18.04.25.11s.1.15.1.25v2.28c0,.1-.03.19-.1.25-.07.07-.15.11-.25.11h-13.2c-.1,0-.18-.04-.25-.11-.07-.07-.1-.15-.1-.25V12.36c0-.1.03-.18.1-.25s.15-.11.25-.11h13.2c.1,0,.18.04.25.11s.1.15.1.25v2.28c0,.1-.03.19-.1.25Z" fill="#24a3bf"/><path d="M59.05,12h2.7c.1,0,.18.04.25.11s.1.15.1.25v20.28c0,.1-.04.19-.1.25-.07.07-.15.11-.25.11h-2.7c-.1,0-.18-.04-.25-.11-.07-.07-.1-.15-.1-.25v-14.31c0-.06-.02-.1-.07-.12-.05-.02-.08,0-.1.06l-3.67,5.76c-.1.16-.24.24-.41.24h-1.35c-.18,0-.31-.08-.41-.24l-3.7-5.73c-.02-.06-.05-.08-.1-.06-.05.02-.07.06-.07.12v14.28c0,.1-.03.19-.1.25-.07.07-.15.11-.25.11h-2.7c-.1,0-.18-.04-.25-.11-.07-.07-.1-.15-.1-.25V12.36c0-.1.03-.18.1-.25s.15-.11.25-.11h2.7c.18,0,.31.08.41.24l4.78,7.41s.08.06.12.06.07-.02.09-.06l4.78-7.41c.1-.16.24-.24.41-.24Z" fill="#24a3bf"/><path d="M77.5,22.23c2,.96,2.99,2.61,2.99,4.95,0,1.9-.62,3.35-1.86,4.33-1.24.99-2.86,1.49-4.86,1.49h-7.39c-.1,0-.18-.04-.25-.11-.07-.07-.1-.15-.1-.25V12.36c0-.1.03-.18.1-.25s.15-.11.25-.11h7.16c2.13,0,3.77.47,4.93,1.41s1.73,2.36,1.73,4.26c0,2.1-.9,3.56-2.7,4.38-.12.06-.12.12,0,.18ZM69.43,15.15v5.55c0,.1.05.15.15.15h3.96c1.04,0,1.85-.25,2.45-.76s.9-1.21.9-2.12-.3-1.64-.9-2.17c-.6-.53-1.41-.79-2.45-.79h-3.96c-.1,0-.15.05-.15.15ZM76.19,29.13c.6-.56.89-1.32.89-2.28s-.3-1.74-.91-2.29c-.61-.55-1.43-.82-2.46-.82h-4.14c-.1,0-.15.05-.15.15v5.94c0,.1.05.15.15.15h4.2c1.02,0,1.82-.28,2.42-.84Z" fill="#24a3bf"/><path d="M97.65,14.89c-.07.07-.15.11-.25.11h-10c-.1,0-.15.05-.15.15v5.61c0,.1.05.15.15.15h6.72c.1,0,.18.04.25.1.07.07.1.16.1.25v2.28c0,.1-.03.19-.1.25-.07.07-.15.11-.25.11h-6.72c-.1,0-.15.05-.15.15v5.79c0,.1.05.15.15.15h10c.1,0,.18.04.25.11s.1.15.1.25v2.28c0,.1-.03.19-.1.25-.07.07-.15.11-.25.11h-13.2c-.1,0-.18-.04-.25-.11-.07-.07-.1-.15-.1-.25V12.36c0-.1.03-.18.1-.25s.15-.11.25-.11h13.2c.1,0,.18.04.25.11s.1.15.1.25v2.28c0,.1-.03.19-.1.25Z" fill="#24a3bf"/><path d="M101.05,32.89c-.07-.07-.1-.15-.1-.25V12.36c0-.1.03-.18.1-.25s.15-.11.25-.11h7.16c1.39,0,2.61.25,3.67.75,1.06.5,1.87,1.21,2.45,2.14.58.93.87,2.02.87,3.26v8.7c0,1.24-.29,2.33-.87,3.26-.58.93-1.39,1.64-2.45,2.14-1.06.5-2.28.75-3.67.75h-7.16c-.1,0-.18-.04-.25-.11ZM104.5,30h4.11c1.04,0,1.86-.33,2.48-1s.93-1.56.95-2.69v-7.59c0-1.14-.31-2.04-.94-2.71-.63-.67-1.47-1-2.52-1h-4.08c-.1,0-.15.05-.15.15v14.7c0,.1.05.15.15.15Z" fill="#24a3bf"/><path d="M119.04,32.89c-.07-.07-.1-.15-.1-.25V12.36c0-.1.03-.18.1-.25s.15-.11.25-.11h7.16c1.39,0,2.61.25,3.67.75,1.06.5,1.87,1.21,2.45,2.14.58.93.87,2.02.87,3.26v8.7c0,1.24-.29,2.33-.87,3.26-.58.93-1.39,1.64-2.45,2.14-1.06.5-2.28.75-3.67.75h-7.16c-.1,0-.18-.04-.25-.11ZM122.49,30h4.11c1.04,0,1.86-.33,2.48-1s.93-1.56.95-2.69v-7.59c0-1.14-.31-2.04-.94-2.71-.63-.67-1.47-1-2.52-1h-4.08c-.1,0-.15.05-.15.15v14.7c0,.1.05.15.15.15Z" fill="#24a3bf"/><path d="M150.74,14.89c-.07.07-.15.11-.25.11h-10c-.1,0-.15.05-.15.15v5.61c0,.1.05.15.15.15h6.72c.1,0,.18.04.25.1.07.07.1.16.1.25v2.28c0,.1-.03.19-.1.25-.07.07-.15.11-.25.11h-6.72c-.1,0-.15.05-.15.15v5.79c0,.1.05.15.15.15h10c.1,0,.18.04.25.11s.1.15.1.25v2.28c0,.1-.03.19-.1.25-.07.07-.15.11-.25.11h-13.2c-.1,0-.18-.04-.25-.11-.07-.07-.1-.15-.1-.25V12.36c0-.1.03-.18.1-.25s.15-.11.25-.11h13.2c.1,0,.18.04.25.11s.1.15.1.25v2.28c0,.1-.03.19-.1.25Z" fill="#24a3bf"/><path d="M154.14,32.89c-.07-.07-.1-.15-.1-.25V12.36c0-.1.03-.18.1-.25s.15-.11.25-.11h7.16c1.39,0,2.61.25,3.67.75,1.06.5,1.87,1.21,2.45,2.14.58.93.87,2.02.87,3.26v8.7c0,1.24-.29,2.33-.87,3.26-.58.93-1.39,1.64-2.45,2.14-1.06.5-2.28.75-3.67.75h-7.16c-.1,0-.18-.04-.25-.11ZM157.59,30h4.11c1.04,0,1.86-.33,2.48-1s.93-1.56.95-2.69v-7.59c0-1.14-.31-2.04-.94-2.71-.63-.67-1.47-1-2.52-1h-4.08c-.1,0-.15.05-.15.15v14.7c0,.1.05.15.15.15Z" fill="#24a3bf"/></svg>