<?xml version="1.0" encoding="us-ascii" standalone="no"?><svg xmlns="http://www.w3.org/2000/svg" xmlns:xlink="http://www.w3.org/1999/xlink" contentStyleType="text/css" height="434px" preserveAspectRatio="none" style="width:431px;height:434px;background:#FFFFFF;" version="1.1" viewBox="0 0 431 434" width="431px" zoomAndPan="magnify"><defs/><g><ellipse cx="196.15" cy="16" fill="#181818" rx="10" ry="10" style="stroke:none;stroke-width:1.0;"/><g id="StateB"><rect fill="#F1F1F1" height="55.412" rx="3.5" ry="3.5" style="stroke:#181818;stroke-width:0.5;" width="90" x="151.15" y="105"/><line style="stroke:#181818;stroke-width:0.5;" x1="151.15" x2="241.15" y1="134.0679" y2="134.0679"/><text fill="#000000" font-family="sans-serif" font-size="14" lengthAdjust="spacing" textLength="43" x="174.65" y="124.9659">StateB</text><text fill="#000000" font-family="sans-serif" font-size="12" lengthAdjust="spacing" textLength="70" x="156.15" y="151.896">single action</text></g><g id="StateA"><rect fill="#F1F1F1" height="55.412" rx="3.5" ry="3.5" style="stroke:#181818;stroke-width:0.5;" width="104" x="24.15" y="239"/><line style="stroke:#181818;stroke-width:0.5;" x1="24.15" x2="128.15" y1="268.0679" y2="268.0679"/><text fill="#000000" font-family="sans-serif" font-size="14" lengthAdjust="spacing" textLength="43" x="54.65" y="258.9659">StateA</text><text fill="#000000" font-family="sans-serif" font-size="12" lengthAdjust="spacing" textLength="84" x="29.15" y="285.896">complex action</text></g><g id="StateC"><rect fill="#F1F1F1" height="55.412" rx="3.5" ry="3.5" style="stroke:#181818;stroke-width:0.5;" width="75" x="153.65" y="373"/><line style="stroke:#181818;stroke-width:0.5;" x1="153.65" x2="228.65" y1="402.0679" y2="402.0679"/><text fill="#000000" font-family="sans-serif" font-size="14" lengthAdjust="spacing" textLength="43" x="169.65" y="392.9659">StateC</text><text fill="#000000" font-family="sans-serif" font-size="12" lengthAdjust="spacing" textLength="55" x="158.65" y="419.896">final state</text></g><!--link *start* to StateB--><g id="link_*start*_StateB"><path d="M196.15,26.37 C196.15,42.23 196.15,75.04 196.15,99.82 " fill="none" id="*start*-to-StateB" style="stroke:#454645;stroke-width:1.0;"/><polygon fill="#454645" points="196.15,104.97,200.15,95.97,196.15,99.97,192.15,95.97,196.15,104.97" style="stroke:#454645;stroke-width:1.0;"/><text fill="#000000" font-family="sans-serif" font-size="13" lengthAdjust="spacing" textLength="19" x="197.15" y="70.897">init</text></g><!--link StateB to StateA--><g id="link_StateB_StateA"><path d="M150.92,133.74 C108.64,136.68 47.59,148.47 17.15,190 C6,205.21 16.3,221.76 31.24,235.48 " fill="none" id="StateB-to-StateA" style="stroke:#454645;stroke-width:1.0;"/><polygon fill="#454645" points="35.13,238.9,31.0076,229.9554,31.3733,235.6004,25.7283,235.9661,35.13,238.9" style="stroke:#454645;stroke-width:1.0;"/><text fill="#000000" font-family="sans-serif" font-size="13" lengthAdjust="spacing" textLength="134" x="18.15" y="204.897">context.cnt_sigint == 0</text></g><!--link StateA to StateB--><g id="link_StateA_StateB"><path d="M122.6,238.81 C134.82,230.34 147.33,220.22 157.15,209 C168.42,196.14 177.48,179.45 184.02,165.03 " fill="none" id="StateA-to-StateB" style="stroke:#454645;stroke-width:1.0;"/><polygon fill="#454645" points="186.14,160.24,178.841,166.8524,184.1172,164.8126,186.1571,170.0888,186.14,160.24" style="stroke:#454645;stroke-width:1.0;"/><text fill="#000000" font-family="sans-serif" font-size="13" lengthAdjust="spacing" textLength="84" x="171.15" y="204.897">cycle == cycles</text></g><!--link StateB to StateC--><g id="link_StateB_StateC"><path d="M238.47,160.02 C248.5,168.37 258.05,178.47 264.15,190 C296.1,250.31 309.56,282.94 277.15,343 C267.69,360.53 250.16,373.51 233.37,382.58 " fill="none" id="StateB-to-StateC" style="stroke:#454645;stroke-width:1.0;"/><polygon fill="#454645" points="228.67,385.03,238.4991,384.4067,233.1014,382.7142,234.7939,377.3165,228.67,385.03" style="stroke:#454645;stroke-width:1.0;"/><text fill="#000000" font-family="sans-serif" font-size="13" lengthAdjust="spacing" textLength="127" x="296.15" y="271.897">context.cnt_sigint &gt; 0</text></g><!--link StateA to StateC--><g id="link_StateA_StateC"><path d="M99.42,294.21 C118.29,315.86 144.87,346.38 164.57,368.99 " fill="none" id="StateA-to-StateC" style="stroke:#454645;stroke-width:1.0;"/><polygon fill="#454645" points="167.92,372.83,165.024,363.4165,164.6356,369.06,158.9921,368.6716,167.92,372.83" style="stroke:#454645;stroke-width:1.0;"/><text fill="#000000" font-family="sans-serif" font-size="13" lengthAdjust="spacing" textLength="127" x="141.15" y="338.897">context.cnt_sigint &gt; 0</text></g><!--link StateA to StateA--><g id="link_StateA_StateA"><path d="M128.39,254.14 C147.5,253.81 163.15,257.93 163.15,266.5 C163.15,274.27 150.3,278.38 133.66,278.83 " fill="none" id="StateA-to-StateA" style="stroke:#454645;stroke-width:1.0;"/><polygon fill="#454645" points="128.39,278.86,137.4127,282.8085,133.3899,278.8314,137.367,274.8086,128.39,278.86" style="stroke:#454645;stroke-width:1.0;"/><text fill="#000000" font-family="sans-serif" font-size="13" lengthAdjust="spacing" textLength="77" x="169.15" y="271.897">cycle &lt; cycles</text></g><!--link StateC to StateC--><g id="link_StateC_StateC"><path d="M228.83,388.46 C247.28,386.88 263.65,390.9 263.65,400.5 C263.65,409.2 250.21,413.32 233.95,412.84 " fill="none" id="StateC-to-StateC" style="stroke:#454645;stroke-width:1.0;"/><polygon fill="#454645" points="228.83,412.54,237.5871,417.0469,233.8219,412.8252,238.0435,409.06,228.83,412.54" style="stroke:#454645;stroke-width:1.0;"/><text fill="#000000" font-family="sans-serif" font-size="13" lengthAdjust="spacing" textLength="25" x="269.65" y="405.897">true</text></g><!--SRC=[dSz12i9030NG_PmYReMAws8BRO_WKaJ68TR0D9NEL-hjTHHhIrsvIy9BFbdWp0tJJOwTLPZTSaz9ajCM5boc92emx-OxBoWbrogunyef3a5gKL2MqNfcgzys_z3YBrf6UdUUO-Yh23DJ36Op8TKq4TsLZHdzrLmyzsGTf5Kpf0NH-dbgF8xR9r7hASJs0G00]--></g></svg>