<?xml version="1.0" encoding="UTF-8" standalone="no"?>
<!DOCTYPE svg PUBLIC "-//W3C//DTD SVG 1.1//EN"
 "http://www.w3.org/Graphics/SVG/1.1/DTD/svg11.dtd">
<!-- Generated by graphviz version 2.43.0 (0)
 -->
<!-- Title: g Pages: 1 -->
<svg width="554pt" height="332pt"
 viewBox="0.00 0.00 553.79 332.00" xmlns="http://www.w3.org/2000/svg" xmlns:xlink="http://www.w3.org/1999/xlink">
<g id="graph0" class="graph" transform="scale(1 1) rotate(0) translate(4 328)">
<title>g</title>
<polygon fill="white" stroke="transparent" points="-4,4 -4,-328 549.79,-328 549.79,4 -4,4"/>
<!-- Runtime -->
<g id="node1" class="node">
<title>Runtime</title>
<ellipse fill="lightgrey" stroke="black" cx="191.95" cy="-162" rx="50.09" ry="18"/>
<text text-anchor="middle" x="191.95" y="-158.3" font-family="Times,serif" font-size="14.00">Runtime</text>
</g>
<!-- Lua -->
<g id="node6" class="node">
<title>Lua</title>
<ellipse fill="none" stroke="black" cx="27.95" cy="-90" rx="27.9" ry="18"/>
<text text-anchor="middle" x="27.95" y="-86.3" font-family="Times,serif" font-size="14.00">Lua</text>
</g>
<!-- Runtime&#45;&gt;Lua -->
<g id="edge5" class="edge">
<title>Runtime&#45;&gt;Lua</title>
<path fill="none" stroke="black" d="M159.98,-148.02C134.22,-137.48 97.11,-122.1 64.95,-108 63.15,-107.21 61.31,-106.4 59.45,-105.57"/>
<polygon fill="black" stroke="black" points="60.75,-102.31 50.19,-101.38 57.86,-108.69 60.75,-102.31"/>
</g>
<!-- System -->
<g id="node7" class="node">
<title>System</title>
<ellipse fill="none" stroke="black" cx="118.95" cy="-90" rx="45.49" ry="18"/>
<text text-anchor="middle" x="118.95" y="-86.3" font-family="Times,serif" font-size="14.00">System</text>
</g>
<!-- Runtime&#45;&gt;System -->
<g id="edge6" class="edge">
<title>Runtime&#45;&gt;System</title>
<path fill="none" stroke="black" d="M175.02,-144.76C165.46,-135.6 153.36,-124 142.85,-113.92"/>
<polygon fill="black" stroke="black" points="145.18,-111.3 135.54,-106.91 140.33,-116.35 145.18,-111.3"/>
</g>
<!-- Common -->
<g id="node8" class="node">
<title>Common</title>
<ellipse fill="none" stroke="black" cx="264.95" cy="-18" rx="51.99" ry="18"/>
<text text-anchor="middle" x="264.95" y="-14.3" font-family="Times,serif" font-size="14.00">Common</text>
</g>
<!-- Runtime&#45;&gt;Common -->
<g id="edge7" class="edge">
<title>Runtime&#45;&gt;Common</title>
<path fill="none" stroke="black" d="M192.68,-143.92C194.13,-125.21 198.39,-94.85 210.95,-72 217.23,-60.58 226.75,-50.05 236.06,-41.44"/>
<polygon fill="black" stroke="black" points="238.55,-43.9 243.75,-34.67 233.93,-38.65 238.55,-43.9"/>
</g>
<!-- Library -->
<g id="node9" class="node">
<title>Library</title>
<ellipse fill="none" stroke="black" cx="264.95" cy="-90" rx="44.69" ry="18"/>
<text text-anchor="middle" x="264.95" y="-86.3" font-family="Times,serif" font-size="14.00">Library</text>
</g>
<!-- Runtime&#45;&gt;Library -->
<g id="edge8" class="edge">
<title>Runtime&#45;&gt;Library</title>
<path fill="none" stroke="black" d="M208.88,-144.76C218.44,-135.6 230.54,-124 241.05,-113.92"/>
<polygon fill="black" stroke="black" points="243.56,-116.35 248.36,-106.91 238.72,-111.3 243.56,-116.35"/>
</g>
<!-- Scheduler -->
<g id="node10" class="node">
<title>Scheduler</title>
<ellipse fill="none" stroke="black" cx="385.95" cy="-90" rx="57.69" ry="18"/>
<text text-anchor="middle" x="385.95" y="-86.3" font-family="Times,serif" font-size="14.00">Scheduler</text>
</g>
<!-- Runtime&#45;&gt;Scheduler -->
<g id="edge9" class="edge">
<title>Runtime&#45;&gt;Scheduler</title>
<path fill="none" stroke="black" d="M226.18,-148.65C257.9,-137.2 305.31,-120.1 340.25,-107.49"/>
<polygon fill="black" stroke="black" points="341.53,-110.75 349.75,-104.06 339.16,-104.16 341.53,-110.75"/>
</g>
<!-- Entry -->
<g id="node2" class="node">
<title>Entry</title>
<ellipse fill="none" stroke="black" cx="322.95" cy="-306" rx="37.09" ry="18"/>
<text text-anchor="middle" x="322.95" y="-302.3" font-family="Times,serif" font-size="14.00">Entry</text>
</g>
<!-- Factory -->
<g id="node3" class="node">
<title>Factory</title>
<ellipse fill="none" stroke="black" cx="322.95" cy="-234" rx="46.29" ry="18"/>
<text text-anchor="middle" x="322.95" y="-230.3" font-family="Times,serif" font-size="14.00">Factory</text>
</g>
<!-- Entry&#45;&gt;Factory -->
<g id="edge1" class="edge">
<title>Entry&#45;&gt;Factory</title>
<path fill="none" stroke="black" d="M322.95,-287.7C322.95,-279.98 322.95,-270.71 322.95,-262.11"/>
<polygon fill="black" stroke="black" points="326.45,-262.1 322.95,-252.1 319.45,-262.1 326.45,-262.1"/>
</g>
<!-- Factory&#45;&gt;Runtime -->
<g id="edge3" class="edge">
<title>Factory&#45;&gt;Runtime</title>
<path fill="none" stroke="black" d="M296.75,-219C277.02,-208.46 249.74,-193.88 227.96,-182.24"/>
<polygon fill="black" stroke="black" points="229.47,-179.08 219,-177.45 226.17,-185.25 229.47,-179.08"/>
</g>
<!-- Application -->
<g id="node4" class="node">
<title>Application</title>
<ellipse fill="none" stroke="black" cx="322.95" cy="-162" rx="63.09" ry="18"/>
<text text-anchor="middle" x="322.95" y="-158.3" font-family="Times,serif" font-size="14.00">Application</text>
</g>
<!-- Factory&#45;&gt;Application -->
<g id="edge2" class="edge">
<title>Factory&#45;&gt;Application</title>
<path fill="none" stroke="black" d="M322.95,-215.7C322.95,-207.98 322.95,-198.71 322.95,-190.11"/>
<polygon fill="black" stroke="black" points="326.45,-190.1 322.95,-180.1 319.45,-190.1 326.45,-190.1"/>
</g>
<!-- ConfigParser -->
<g id="node5" class="node">
<title>ConfigParser</title>
<ellipse fill="none" stroke="black" cx="474.95" cy="-162" rx="70.69" ry="18"/>
<text text-anchor="middle" x="474.95" y="-158.3" font-family="Times,serif" font-size="14.00">ConfigParser</text>
</g>
<!-- Factory&#45;&gt;ConfigParser -->
<g id="edge4" class="edge">
<title>Factory&#45;&gt;ConfigParser</title>
<path fill="none" stroke="black" d="M351.54,-219.83C374.51,-209.25 407.12,-194.24 433.04,-182.3"/>
<polygon fill="black" stroke="black" points="434.64,-185.41 442.26,-178.05 431.72,-179.06 434.64,-185.41"/>
</g>
<!-- IO -->
<g id="node11" class="node">
<title>IO</title>
<ellipse fill="none" stroke="black" cx="71.95" cy="-18" rx="27" ry="18"/>
<text text-anchor="middle" x="71.95" y="-14.3" font-family="Times,serif" font-size="14.00">IO</text>
</g>
<!-- System&#45;&gt;IO -->
<g id="edge12" class="edge">
<title>System&#45;&gt;IO</title>
<path fill="none" stroke="black" d="M107.81,-72.41C101.99,-63.74 94.76,-52.97 88.31,-43.38"/>
<polygon fill="black" stroke="black" points="91.16,-41.34 82.68,-34.99 85.35,-45.24 91.16,-41.34"/>
</g>
<!-- OS -->
<g id="node12" class="node">
<title>OS</title>
<ellipse fill="none" stroke="black" cx="143.95" cy="-18" rx="27" ry="18"/>
<text text-anchor="middle" x="143.95" y="-14.3" font-family="Times,serif" font-size="14.00">OS</text>
</g>
<!-- System&#45;&gt;OS -->
<g id="edge13" class="edge">
<title>System&#45;&gt;OS</title>
<path fill="none" stroke="black" d="M125,-72.05C127.86,-64.06 131.33,-54.33 134.52,-45.4"/>
<polygon fill="black" stroke="black" points="137.88,-46.38 137.95,-35.79 131.29,-44.03 137.88,-46.38"/>
</g>
<!-- Library&#45;&gt;Common -->
<g id="edge11" class="edge">
<title>Library&#45;&gt;Common</title>
<path fill="none" stroke="black" d="M264.95,-71.7C264.95,-63.98 264.95,-54.71 264.95,-46.11"/>
<polygon fill="black" stroke="black" points="268.45,-46.1 264.95,-36.1 261.45,-46.1 268.45,-46.1"/>
</g>
<!-- Scheduler&#45;&gt;Common -->
<g id="edge10" class="edge">
<title>Scheduler&#45;&gt;Common</title>
<path fill="none" stroke="black" d="M359.69,-73.81C342.05,-63.61 318.62,-50.05 299.47,-38.97"/>
<polygon fill="black" stroke="black" points="301.14,-35.9 290.74,-33.92 297.64,-41.96 301.14,-35.9"/>
</g>
</g>
</svg>
