<?xml version="1.0" encoding="UTF-8" standalone="no"?>
<!DOCTYPE svg PUBLIC "-//W3C//DTD SVG 1.1//EN"
 "http://www.w3.org/Graphics/SVG/1.1/DTD/svg11.dtd">
<!-- Generated by graphviz version 2.43.0 (0)
 -->
<!-- Title: UML_Class_diagram Pages: 1 -->
<svg width="211pt" height="309pt"
 viewBox="0.00 0.00 210.50 309.00" xmlns="http://www.w3.org/2000/svg" xmlns:xlink="http://www.w3.org/1999/xlink">
<g id="graph0" class="graph" transform="scale(1 1) rotate(0) translate(4 305)">
<title>UML_Class_diagram</title>
<polygon fill="white" stroke="transparent" points="-4,4 -4,-305 206.5,-305 206.5,4 -4,4"/>
<!-- Runtime -->
<g id="node1" class="node">
<title>Runtime</title>
<polygon fill="none" stroke="black" points="92,-264.5 92,-300.5 169,-300.5 169,-264.5 92,-264.5"/>
<text text-anchor="middle" x="130.5" y="-278.8" font-family="Times,serif" font-size="14.00">Runtime</text>
</g>
<!-- Scheduler -->
<g id="node2" class="node">
<title>Scheduler</title>
<polygon fill="none" stroke="black" points="41,-176.5 41,-212.5 130,-212.5 130,-176.5 41,-176.5"/>
<text text-anchor="middle" x="85.5" y="-190.8" font-family="Times,serif" font-size="14.00">Scheduler</text>
</g>
<!-- Runtime&#45;&gt;Scheduler -->
<g id="edge1" class="edge">
<title>Runtime&#45;&gt;Scheduler</title>
<path fill="none" stroke="black" d="M115.82,-253.44C108.76,-239.96 100.54,-224.24 94.44,-212.58"/>
<polygon fill="black" stroke="black" points="115.83,-253.46 122.16,-256.93 121.39,-264.1 115.07,-260.63 115.83,-253.46"/>
<text text-anchor="middle" x="123" y="-234.8" font-family="Times,serif" font-size="14.00">1:1</text>
</g>
<!-- GV -->
<g id="node3" class="node">
<title>GV</title>
<polygon fill="none" stroke="black" points="148.5,-176.5 148.5,-212.5 202.5,-212.5 202.5,-176.5 148.5,-176.5"/>
<text text-anchor="middle" x="175.5" y="-190.8" font-family="Times,serif" font-size="14.00">GV</text>
</g>
<!-- Runtime&#45;&gt;GV -->
<g id="edge2" class="edge">
<title>Runtime&#45;&gt;GV</title>
<path fill="none" stroke="black" d="M145.18,-253.44C152.24,-239.96 160.46,-224.24 166.56,-212.58"/>
<polygon fill="black" stroke="black" points="145.17,-253.46 145.93,-260.63 139.61,-264.1 138.84,-256.93 145.17,-253.46"/>
<text text-anchor="middle" x="168" y="-234.8" font-family="Times,serif" font-size="14.00">1:n</text>
</g>
<!-- Task -->
<g id="node4" class="node">
<title>Task</title>
<polygon fill="none" stroke="black" points="58.5,-88.5 58.5,-124.5 112.5,-124.5 112.5,-88.5 58.5,-88.5"/>
<text text-anchor="middle" x="85.5" y="-102.8" font-family="Times,serif" font-size="14.00">Task</text>
</g>
<!-- Scheduler&#45;&gt;Task -->
<g id="edge3" class="edge">
<title>Scheduler&#45;&gt;Task</title>
<path fill="none" stroke="black" d="M85.5,-163.81C85.5,-150.71 85.5,-135.78 85.5,-124.58"/>
<polygon fill="black" stroke="black" points="85.5,-164.1 89.5,-170.1 85.5,-176.1 81.5,-170.1 85.5,-164.1"/>
<text text-anchor="middle" x="97" y="-146.8" font-family="Times,serif" font-size="14.00">1:n</text>
</g>
<!-- Program -->
<g id="node5" class="node">
<title>Program</title>
<polygon fill="none" stroke="black" points="0,-0.5 0,-36.5 79,-36.5 79,-0.5 0,-0.5"/>
<text text-anchor="middle" x="39.5" y="-14.8" font-family="Times,serif" font-size="14.00">Program</text>
</g>
<!-- Task&#45;&gt;Program -->
<g id="edge4" class="edge">
<title>Task&#45;&gt;Program</title>
<path fill="none" stroke="black" d="M70.49,-77.44C63.28,-63.96 54.87,-48.24 48.64,-36.58"/>
<polygon fill="black" stroke="black" points="70.53,-77.52 76.89,-80.92 76.19,-88.1 69.83,-84.69 70.53,-77.52"/>
<text text-anchor="middle" x="77" y="-58.8" font-family="Times,serif" font-size="14.00">1:n</text>
</g>
<!-- IOLogic -->
<g id="node6" class="node">
<title>IOLogic</title>
<polygon fill="none" stroke="black" points="97,-0.5 97,-36.5 168,-36.5 168,-0.5 97,-0.5"/>
<text text-anchor="middle" x="132.5" y="-14.8" font-family="Times,serif" font-size="14.00">IOLogic</text>
</g>
<!-- Task&#45;&gt;IOLogic -->
<g id="edge5" class="edge">
<title>Task&#45;&gt;IOLogic</title>
<path fill="none" stroke="black" d="M100.84,-77.44C108.2,-63.96 116.79,-48.24 123.16,-36.58"/>
<polygon fill="black" stroke="black" points="100.77,-77.57 101.4,-84.75 95.01,-88.1 94.38,-80.91 100.77,-77.57"/>
<text text-anchor="middle" x="124" y="-58.8" font-family="Times,serif" font-size="14.00">1:n</text>
</g>
</g>
</svg>
